<svg width="386.073120" height="380.000000" viewBox="0 0 386.073 380" fill="none" xmlns="http://www.w3.org/2000/svg" xmlns:xlink="http://www.w3.org/1999/xlink">
	<desc>
			Created with Pixso.
	</desc>
	<defs/>
	<path id="Vector 40" d="M310.15 56.13C172.82 32.3 -75.95 11.53 27.65 119.13C131.25 226.73 259.15 234.96 310.15 225.63" stroke="#133556" stroke-opacity="1.000000" stroke-width="6.000000"/>
	<path id="Star 10" d="M196.07 0L152.53 70.37L73.94 44.45L85.82 126.35L8.95 157L70.7 212.1L31.52 285L114.24 287.51L131.08 368.54L196.07 317.29L261.05 368.54L277.9 287.51L360.61 285L321.43 212.1L383.18 157L306.31 126.35L318.2 44.45L239.61 70.37L196.07 0Z" fill="#FFDA6A" fill-opacity="1.000000" fill-rule="evenodd"/>
	<path id="Vector 41" d="M48.76 139.42C111.59 185.42 257.98 271.77 335.58 246.97" stroke="#133556" stroke-opacity="1.000000" stroke-width="6.000000"/>
	<circle id="Ellipse 18" cx="18.073120" cy="110.000000" r="15.000000" fill="#FF931E" fill-opacity="1.000000"/>
	<circle id="Ellipse 19" cx="46.073120" cy="137.000000" r="15.000000" fill="#FFA8D4" fill-opacity="1.000000"/>
	<circle id="Ellipse 20" cx="78.073120" cy="160.000000" r="15.000000" fill="#FFF0F8" fill-opacity="1.000000"/>
</svg>
