<svg width="394.735107" height="380.000000" viewBox="0 0 394.735 380" fill="none" xmlns="http://www.w3.org/2000/svg" xmlns:xlink="http://www.w3.org/1999/xlink">
	<desc>
			Created with Pixso.
	</desc>
	<defs/>
	<path id="Vector 43" d="M79.07 62.72C88.71 59.85 117.51 48.09 139.22 42C169.5 33.5 166.5 34 179.72 29" stroke="#133556" stroke-opacity="1.000000" stroke-width="6.000000"/>
	<path id="Star 10" d="M199.72 0L156.18 70.37L77.59 44.45L89.47 126.35L12.6 157L74.35 212.1L35.17 285L117.89 287.51L134.73 368.54L199.72 317.29L264.7 368.54L281.54 287.51L364.26 285L325.08 212.1L386.83 157L309.96 126.35L321.85 44.45L243.26 70.37L199.72 0Z" fill="#AED6F1" fill-opacity="1.000000" fill-rule="evenodd"/>
	<path id="Vector 42" d="M5.22 280C5.22 280 0.22 281.99 5.22 249.49C10.22 216.99 67.22 203 77.72 171.5C88.22 140 36.22 136.5 33.22 110C30.22 83.5 75.72 63.7 79.72 62.5" stroke="#133556" stroke-opacity="1.000000" stroke-width="6.000000"/>
	<path id="Vector 44" d="M178.5 29.49C193.5 23 223.28 14.85 246.23 27.49C359.72 90 263.73 245.99 394.73 245.99" stroke="#133556" stroke-opacity="1.000000" stroke-width="6.000000"/>
	<circle id="Ellipse 21" cx="44.000854" cy="123.000000" r="15.000000" fill="#FFA8D4" fill-opacity="1.000000"/>
	<circle id="Ellipse 22" cx="171.000854" cy="34.000000" r="15.000000" fill="#FFDA6A" fill-opacity="1.000000"/>
	<circle id="Ellipse 23" cx="69.000854" cy="148.000000" r="15.000000" fill="#1D568D" fill-opacity="1.000000"/>
</svg>
