<svg width="458.222015" height="380.000000" viewBox="0 0 458.222 380" fill="none" xmlns="http://www.w3.org/2000/svg" xmlns:xlink="http://www.w3.org/1999/xlink">
	<desc>
			Created with Pixso.
	</desc>
	<defs/>
	<path id="Vector 46" d="M62.37 192.15L68.37 187.15" stroke="#133556" stroke-opacity="1.000000" stroke-width="6.000000"/>
	<path id="Star 10" d="M212.19 0L168.65 70.37L90.06 44.45L101.94 126.35L25.08 157L86.82 212.1L47.64 285L130.36 287.51L147.21 368.54L212.19 317.29L277.17 368.54L294.02 287.51L376.73 285L337.56 212.1L399.3 157L322.43 126.35L334.32 44.45L255.73 70.37L212.19 0Z" fill="#FFEF96" fill-opacity="1.000000" fill-rule="evenodd"/>
	<path id="Vector 45" d="M63.19 191.5C59.42 195.76 -62.06 260.5 51.54 260.5C165.14 260.5 248.3 186.16 289.64 104C308.14 66.83 351.74 25.8 378.14 159C404.54 292.2 438.49 254.16 457.65 250.5" stroke="#133556" stroke-opacity="1.000000" stroke-width="6.000000"/>
	<circle id="Ellipse 24" cx="190.142212" cy="219.000000" r="15.000000" fill="#FF853F" fill-opacity="1.000000"/>
	<circle id="Ellipse 25" cx="219.142212" cy="197.000000" r="15.000000" fill="#D7EFFF" fill-opacity="1.000000"/>
	<circle id="Ellipse 26" cx="245.142212" cy="171.000000" r="15.000000" fill="#FFDA6A" fill-opacity="1.000000"/>
</svg>
