<svg width="168.532715" height="168.532715" viewBox="0 0 168.533 168.533" fill="none" xmlns="http://www.w3.org/2000/svg" xmlns:xlink="http://www.w3.org/1999/xlink">
	<desc>
			Created with Pixso.
	</desc>
	<defs/>
	<path id="Star 10" d="M64.45 19.81L55.47 49.44L24.68 52.7L39.28 80L19.81 104.07L49.44 113.05L52.7 143.85L80 129.24L104.07 148.72L113.05 119.08L143.85 115.83L129.24 88.52L148.72 64.45L119.08 55.47L115.83 24.68L88.52 39.28L64.45 19.81Z" fill="#AED6F1" fill-opacity="1.000000" fill-rule="evenodd"/>
	<path id="Star 12" d="M73.14 47.51L68.11 64.13L50.84 65.95L59.03 81.26L48.11 94.77L64.73 99.8L66.55 117.07L81.86 108.88L95.36 119.8L100.4 103.18L117.67 101.36L109.47 86.04L120.4 72.54L103.78 67.51L101.95 50.24L86.64 58.43L73.14 47.51Z" fill="#002ADB" fill-opacity="1.000000" fill-rule="evenodd"/>
</svg>
