<svg width="165.169556" height="165.169495" viewBox="0 0 165.17 165.169" fill="none" xmlns="http://www.w3.org/2000/svg" xmlns:xlink="http://www.w3.org/1999/xlink">
	<desc>
			Created with Pixso.
	</desc>
	<defs/>
	<path id="Star 11" d="M100.03 147.71L110.08 118.42L140.98 116.3L127.37 88.48L147.71 65.13L118.42 55.08L116.3 24.18L88.48 37.79L65.13 17.45L55.08 46.74L24.18 48.86L37.79 76.68L17.45 100.03L46.74 110.08L48.86 140.98L76.68 127.37L100.03 147.71Z" fill="#FFDA6A" fill-opacity="1.000000" fill-rule="evenodd"/>
	<path id="Star 13" d="M72.14 47.11L67.11 63.73L49.84 65.55L58.03 80.86L47.11 94.36L63.73 99.4L65.55 116.67L80.86 108.47L94.36 119.4L99.4 102.78L116.67 100.95L108.47 85.64L119.4 72.14L102.78 67.11L100.95 49.84L85.64 58.03L72.14 47.11Z" fill="#FF853F" fill-opacity="1.000000" fill-rule="evenodd"/>
</svg>
