<svg width="855.000000" height="171.374512" viewBox="0 0 855 171.375" fill="none" xmlns="http://www.w3.org/2000/svg" xmlns:xlink="http://www.w3.org/1999/xlink">
	<desc>
			Created with Pixso.
	</desc>
	<defs/>
	<path id="Star 17" d="M712.18 54.31L709.4 63.07L702 57.62L704.9 66.34L695.71 66.28L703.17 71.64L695.71 76.99L704.9 76.93L702 85.65L709.4 80.2L712.18 88.96L714.97 80.2L722.37 85.65L719.47 76.93L728.66 76.99L721.19 71.64L728.66 66.28L719.47 66.34L722.37 57.62L714.97 63.07L712.18 54.31Z" fill="#FF69B4" fill-opacity="1.000000" fill-rule="evenodd"/>
	<path id="Future awaits" d="M0 14.16L75.7 0L77.82 0L75.99 50.79L29.12 49.15L28.25 49.44L25.74 95.61L51.11 91.37L49.08 117.3L24.68 116.33L22.08 165.2L7.42 171.37L6.55 171.27L0 14.16ZM187.08 105.73L177.05 107.08L180.81 166.55L163.93 170.41L155.45 110.07L141.08 112.09L139.05 99.37L153.81 98.02L146.58 46.36L172.9 41.15L176.37 96L186.5 95.13L187.08 105.73ZM780.92 105.73L770.9 107.08L774.66 166.55L757.78 170.41L749.29 110.07L734.93 112.09L732.9 99.37L747.65 98.02L740.42 46.36L766.75 41.15L770.22 96L780.35 95.13L780.92 105.73ZM298.94 76.72L299.62 86.74C307.2 80.45 315.21 77.52 323.63 77.97C331.67 78.36 337.2 81.47 340.22 87.32L317.65 106.12C315.66 101.49 313.47 98.5 311.09 97.15C309.1 96.06 307.11 96.25 305.12 97.73Q302.51 99.56 300.68 103.61C299.59 106.12 299.01 108.53 298.94 110.84L298.27 158.65L274.74 157.78L268.47 81.25L298.94 76.72ZM339.93 125.39C338.27 119.83 337.45 114.72 337.45 110.07C337.45 94.86 346.31 84.54 364.04 79.13C384.48 75.72 398.69 82.47 406.66 99.37C407.37 100.78 408.59 104.93 410.33 111.8L363.17 123.85C364.26 132.27 369.44 136.83 378.7 137.54C387.95 138.25 397.5 135.45 407.34 129.15L409.07 146.12C395.06 154.28 381.3 156.78 367.8 153.64Q361.2 152.1 355.94 148.56Q345.06 141.25 339.93 125.39ZM114.66 81.44L135.29 78.84C135.37 82.44 135.4 85.89 135.4 89.2C135.4 106.21 134.43 119.36 132.5 128.67C132.37 130.02 132.05 131.59 131.53 133.39C128.13 145.35 120.86 153.35 109.74 157.39C104.15 159.45 98.91 160.28 94.02 159.9C92.28 159.58 90.87 159.16 89.78 158.65C81.8 154.86 76.24 145.47 73.09 130.5C71.49 123.05 70.68 115.95 70.68 109.2L70.68 94.07L96.62 86.84C96.62 86.9 96.4 89.18 95.95 93.68C95.37 99.14 94.98 104.03 94.79 108.33C94.62 111.61 94.53 114.6 94.53 117.32C94.53 126.62 95.55 132.68 97.59 135.51C100.29 139.31 103.28 139.66 106.56 136.57C108.87 134.45 110.54 131.95 111.57 129.06C111.83 128.03 112.05 127.29 112.25 126.84C114.48 114.39 115.59 103.61 115.59 94.5Q115.59 87.27 114.66 81.44ZM242.72 81.44L263.36 78.84C263.43 82.44 263.47 85.89 263.47 89.2C263.47 106.21 262.5 119.36 260.56 128.67C260.43 130.02 260.11 131.59 259.6 133.39C256.19 145.35 248.93 153.35 237.8 157.39C232.21 159.45 226.97 160.28 222.08 159.9C220.35 159.58 218.93 159.16 217.84 158.65C209.87 154.86 204.31 145.47 201.16 130.5C199.55 123.05 198.75 115.95 198.75 109.2L198.75 94.07L224.69 86.84Q224.69 86.94 224.01 93.68C223.43 99.14 223.05 104.03 222.86 108.33C222.68 111.61 222.59 114.6 222.59 117.32C222.59 126.62 223.61 132.68 225.65 135.51C228.35 139.31 231.34 139.66 234.62 136.57C236.94 134.45 238.61 131.95 239.64 129.06C239.89 128.03 240.12 127.29 240.31 126.84Q243.66 108.17 243.66 94.5Q243.66 87.27 242.72 81.44ZM554.78 115.85L568.77 85.2L569.35 85.2L590.37 118.94L596.06 78.84L618.91 78.94L596.06 158.84Q595.67 159.03 570.89 119.13L555.27 158.84L522 96.19L545.05 94.07L554.78 115.85ZM512.74 80.57L523.93 151.51L501.65 157.59L500.49 150.94C492.91 154.98 486.89 157.01 482.46 157.01C472.24 157.01 463.53 153.57 456.33 146.7C449.06 139.75 445.43 131.4 445.43 121.63C445.43 111.87 449.06 103.51 456.33 96.57C463.53 89.7 472.24 86.26 482.46 86.26C485.93 86.26 489.4 86.74 492.87 87.71L493.45 82.5L512.74 80.57ZM681.5 80.57L692.69 151.51L670.41 157.59L669.25 150.94C661.67 154.98 655.66 157.01 651.22 157.01C641 157.01 632.29 153.57 625.09 146.7C617.82 139.75 614.19 131.4 614.19 121.63C614.19 111.87 617.82 103.51 625.09 96.57C632.29 89.7 641 86.26 651.22 86.26C654.69 86.26 658.16 86.74 661.63 87.71L662.21 82.5L681.5 80.57ZM853.73 133.3C854.57 135.89 855 138.36 855 140.71C855 142.66 854.7 144.53 854.12 146.31C852.9 150.17 850.33 153.31 846.4 155.75C839.4 160.13 829.82 161.64 817.67 160.28C805.52 158.94 797.32 155.43 793.08 149.78L791.92 148.24L798.57 128.86L802.14 134.65Q805.03 139.37 813.52 141.88C819.24 143.55 824.06 143.64 827.98 142.17C829.53 141.65 830.75 141.07 831.65 140.43C832.19 140.06 832.45 139.84 832.45 139.77C832.45 139.76 832.44 139.75 832.42 139.75C832.23 137.25 825.61 132.88 812.56 126.65L809.47 125.1C803.94 122.34 799.7 118.81 796.74 114.5C794.17 110.77 792.89 106.91 792.89 102.93C792.89 102.32 792.92 101.72 792.98 101.1L793.17 99.37C794.65 91.72 800.08 86.42 809.47 83.47C814.48 81.86 821.46 81.31 830.4 81.83C840.43 82.47 847.63 84.43 852 87.71L854.6 89.63L844.28 105.63L842.84 107.95L838.79 106.41L832.81 104.19C827.92 102.65 824.74 102.55 823.26 103.9C822.74 104.36 822.48 105.24 822.48 106.54C822.48 106.68 822.48 106.83 822.49 106.98C822.94 108.14 826.76 110.94 833.96 115.37C839.75 118.97 843.86 121.76 846.31 123.76C850.29 126.97 852.77 130.15 853.73 133.3ZM700.69 97.25L728.37 91.37L728.17 154.6L707.73 160L700.69 97.25ZM386.7 105.73C382.52 96.48 376.03 92.98 367.22 95.22C363.35 98.53 361.42 102.87 361.42 108.23C361.42 109.64 361.55 111.12 361.82 112.67L386.7 105.73ZM475.42 137.35C477.73 141.27 480.56 143.23 483.91 143.23C487.18 143.23 489.98 141.27 492.3 137.35C494.61 133.49 495.77 128.86 495.77 123.47C495.77 118 494.61 113.35 492.3 109.49C489.98 105.57 487.18 103.61 483.91 103.61C480.56 103.61 477.73 105.57 475.42 109.49C473.1 113.35 471.95 118 471.95 123.47C471.95 128.86 473.1 133.49 475.42 137.35ZM644.18 137.35C646.49 141.27 649.32 143.23 652.67 143.23C655.95 143.23 658.74 141.27 661.06 137.35C663.37 133.49 664.53 128.86 664.53 123.47C664.53 118 663.37 113.35 661.06 109.49C658.74 105.57 655.95 103.61 652.67 103.61C649.32 103.61 646.49 105.57 644.18 109.49C641.87 113.35 640.71 118 640.71 123.47C640.71 128.86 641.87 133.49 644.18 137.35Z" fill="#FFFFFF" fill-opacity="1.000000" fill-rule="evenodd"/>
</svg>
