<svg width="30" height="24" viewBox="0 0 30 24" fill="none" xmlns="http://www.w3.org/2000/svg">
<path d="M4.49935 2.50067C6.721 0.401754 7.96727 1.8795 11 1.50038C19.001 0.50019 26.9991 0.000311375 28.5009 3.50069C29.6031 6.06994 29.5105 7.27295 26.9991 8.50125C25.5958 9.18756 25.0009 7.50069 22.9991 8.50125C21.2008 9.40007 20.5093 11.9134 18.5009 12.0007C16.3198 12.0955 16.5009 9.00069 13.5009 9.00069C11.1496 9.00069 10.3099 10.5475 9.00088 12.5007C6.9014 15.6334 9.49909 21.0007 6.00087 22.5007C3.81029 23.44 3.50035 22.0003 2.99961 19.0003C1.48614 9.93294 -0.628074 7.34481 4.49935 2.50067Z" fill="white" stroke="white"/>
</svg>
