<svg width="51" height="22" viewBox="0 0 51 22" fill="none" xmlns="http://www.w3.org/2000/svg">
<path d="M7.5 13.4022C-0.255402 16.8563 -0.713336 2.21066 2.89055 1.10533C6.49444 1.19209e-07 8.12039 1.78039 11.4792 1.658C15.7544 1.50221 17.5923 3.0664e-08 21.8703 0C24.2266 -1.6889e-08 25.005 1.16122 27.2719 1.93433C33.7219 4.13408 37.2912 -0.214203 43.7584 1.93433C45.422 2.487 49.443 4.50068 50.2695 7.32283C50.9776 9.74109 51.691 12.3865 49.7142 13.9548C47.6748 15.5727 47.9883 14.7297 45.4995 15.5C40.4041 17.0771 44.298 21.6226 38.9995 21C33.9146 20.4025 35.8621 16.0273 34.1985 13.4022C33.549 12.3772 32.5004 12.4029 31.2893 12.2968C27.7402 11.9859 28.5403 17.1052 24.9996 17.5C21.0391 17.9416 18.407 6.63199 15.7749 14.2312C13.1428 21.8303 9.58024 21.6921 7.5 13.4022Z" fill="white"/>
</svg>
